<svg width="90" height="90" viewBox="0 0 90 90" fill="none" xmlns="http://www.w3.org/2000/svg">
<path d="M30.7385 44.6522C34.5861 44.6522 38.276 43.1238 40.9967 40.4031C43.7173 37.6825 45.2457 33.9925 45.2457 30.1449C45.2457 26.2974 43.7173 22.6074 40.9967 19.8868C38.276 17.1661 34.5861 15.6377 30.7385 15.6377C26.8909 15.6377 23.201 17.1661 20.4803 19.8868C17.7597 22.6074 16.2312 26.2974 16.2312 30.1449C16.2312 33.9925 17.7597 37.6825 20.4803 40.4031C23.201 43.1238 26.8909 44.6522 30.7385 44.6522ZM56.1239 67.6183C58.4897 68.5869 61.4983 69.2029 65.3282 69.2029C83.1833 69.2029 83.1833 55.8116 83.1833 55.8116C83.1833 54.0366 82.4785 52.3342 81.2238 51.0786C79.9691 49.8231 78.2671 49.1171 76.4921 49.116H55.8338C57.5881 51.2407 58.6415 53.9591 58.6415 56.9276V58.5167C58.632 58.8925 58.6067 59.2678 58.5656 59.6415C58.2617 62.43 57.4304 65.1361 56.1239 67.6183ZM76.4921 33.4928C76.4921 36.4524 75.3164 39.2909 73.2236 41.3837C71.1308 43.4765 68.2924 44.6522 65.3327 44.6522C62.373 44.6522 59.5346 43.4765 57.4418 41.3837C55.349 39.2909 54.1733 36.4524 54.1733 33.4928C54.1733 30.5331 55.349 27.6947 57.4418 25.6019C59.5346 23.5091 62.373 22.3333 65.3327 22.3333C68.2924 22.3333 71.1308 23.5091 73.2236 25.6019C75.3164 27.6947 76.4921 30.5331 76.4921 33.4928ZM7.30371 58.0435C7.30371 55.6758 8.24429 53.405 9.91853 51.7308C11.5928 50.0565 13.8635 49.116 16.2312 49.116H45.2457C47.6135 49.116 49.8842 50.0565 51.5585 51.7308C53.2327 53.405 54.1733 55.6758 54.1733 58.0435C54.1733 58.0435 54.1733 75.8986 30.7385 75.8986C7.30371 75.8986 7.30371 58.0435 7.30371 58.0435Z" fill="#6A6A6A"/>
</svg>
