<svg width="24" height="24" viewBox="0 0 24 24" fill="none" xmlns="http://www.w3.org/2000/svg">
<path d="M8.82918 12.524C8.93918 12.39 9.21918 12.25 9.50018 12.25C9.69909 12.25 9.88986 12.329 10.0305 12.4697C10.1712 12.6103 10.2502 12.8011 10.2502 13C10.2502 13.265 10.1732 13.425 10.0732 13.521C9.97118 13.619 9.74418 13.75 9.25018 13.75C9.05127 13.75 8.8605 13.829 8.71985 13.9697C8.5792 14.1103 8.50018 14.3011 8.50018 14.5C8.50018 14.6989 8.5792 14.8897 8.71985 15.0303C8.8605 15.171 9.05127 15.25 9.25018 15.25C9.74418 15.25 9.97118 15.381 10.0732 15.479C10.1732 15.576 10.2502 15.735 10.2502 16C10.2502 16.1989 10.1712 16.3897 10.0305 16.5303C9.88986 16.671 9.69909 16.75 9.50018 16.75C9.22018 16.75 8.94018 16.61 8.82918 16.476C8.76654 16.4 8.68954 16.337 8.60257 16.2907C8.5156 16.2445 8.42037 16.2158 8.32231 16.2063C8.22425 16.1968 8.12528 16.2068 8.03106 16.2355C7.93685 16.2643 7.84922 16.3114 7.77318 16.374C7.69715 16.4366 7.63419 16.5136 7.58792 16.6006C7.54164 16.6876 7.51295 16.7828 7.50348 16.8809C7.49401 16.9789 7.50394 17.0779 7.53272 17.1721C7.56149 17.2663 7.60854 17.354 7.67118 17.43C8.11118 17.964 8.84718 18.25 9.50018 18.25C10.0969 18.25 10.6692 18.0129 11.0912 17.591C11.5131 17.169 11.7502 16.5967 11.7502 16C11.7502 15.478 11.6012 14.932 11.2122 14.5C11.6022 14.068 11.7502 13.522 11.7502 13C11.7502 12.4033 11.5131 11.831 11.0912 11.409C10.6692 10.9871 10.0969 10.75 9.50018 10.75C8.84718 10.75 8.11118 11.036 7.67118 11.57C7.54467 11.7236 7.48435 11.9211 7.50348 12.1191C7.52261 12.3172 7.61962 12.4995 7.77318 12.626C7.92674 12.7525 8.12427 12.8128 8.32231 12.7937C8.52034 12.7746 8.70267 12.6776 8.82918 12.524ZM14.5002 17.5V12.749L14.1022 12.96C13.9272 13.0475 13.7249 13.0632 13.5385 13.0036C13.3521 12.9441 13.1964 12.8141 13.1045 12.6413C13.0127 12.4685 12.992 12.2667 13.0468 12.0789C13.1017 11.8911 13.2278 11.7322 13.3982 11.636L14.6162 10.988L14.6252 10.983C14.6612 10.963 14.7252 10.929 14.7872 10.903C14.9306 10.842 15.0874 10.8192 15.2422 10.837C15.3611 10.8525 15.4754 10.8924 15.5782 10.9541C15.6809 11.0159 15.7698 11.0983 15.8392 11.196C15.9288 11.3238 15.9823 11.4734 15.9942 11.629C16.0002 11.695 16.0002 11.768 16.0002 11.809V17.5C16.0002 17.6989 15.9212 17.8897 15.7805 18.0303C15.6399 18.171 15.4491 18.25 15.2502 18.25C15.0513 18.25 14.8605 18.171 14.7199 18.0303C14.5792 17.8897 14.5002 17.6989 14.5002 17.5Z" fill="#E54B75"/>
<path d="M10.367 2.75H13.633C14.725 2.75 15.591 2.75 16.288 2.807C17.002 2.865 17.605 2.987 18.157 3.267C19.0506 3.72284 19.777 4.44992 20.232 5.344C20.513 5.894 20.635 6.498 20.693 7.212C20.75 7.909 20.75 8.775 20.75 9.867V14.133C20.75 15.225 20.75 16.091 20.693 16.788C20.635 17.502 20.513 18.105 20.233 18.657C19.7774 19.5505 19.0507 20.2768 18.157 20.732C17.605 21.013 17.002 21.135 16.288 21.193C15.591 21.25 14.725 21.25 13.633 21.25H10.367C9.275 21.25 8.409 21.25 7.712 21.193C6.998 21.135 6.395 21.013 5.844 20.733C4.95014 20.2776 4.22341 19.5509 3.768 18.657C3.487 18.105 3.365 17.502 3.307 16.788C3.25 16.091 3.25 15.225 3.25 14.133V9.867C3.25 8.775 3.25 7.909 3.307 7.212C3.365 6.498 3.487 5.895 3.767 5.344C4.22267 4.44999 4.94977 3.72324 5.844 3.268C6.394 2.987 6.998 2.865 7.712 2.807C8.409 2.75 9.275 2.75 10.367 2.75ZM4.75 9.5V14.1C4.75 15.233 4.75 16.037 4.802 16.666C4.852 17.286 4.949 17.671 5.104 17.976C5.41556 18.5874 5.91263 19.0844 6.524 19.396C6.829 19.551 7.214 19.647 7.834 19.698C8.464 19.749 9.268 19.75 10.4 19.75H13.6C14.733 19.75 15.537 19.75 16.166 19.698C16.786 19.648 17.171 19.551 17.476 19.396C18.0874 19.0844 18.5844 18.5874 18.896 17.976C19.051 17.671 19.147 17.286 19.198 16.666C19.249 16.036 19.25 15.232 19.25 14.1V9.5H4.75ZM9.5 5.75C9.23478 5.75 8.98043 5.85536 8.79289 6.04289C8.60536 6.23043 8.5 6.48478 8.5 6.75C8.5 7.01522 8.60536 7.26957 8.79289 7.45711C8.98043 7.64464 9.23478 7.75 9.5 7.75H14.5C14.7652 7.75 15.0196 7.64464 15.2071 7.45711C15.3946 7.26957 15.5 7.01522 15.5 6.75C15.5 6.48478 15.3946 6.23043 15.2071 6.04289C15.0196 5.85536 14.7652 5.75 14.5 5.75H9.5Z" fill="#E54B75"/>
</svg>
