<svg width="73" height="73" viewBox="0 0 73 73" fill="none" xmlns="http://www.w3.org/2000/svg">
<path d="M53.7588 42.9036C55.5451 42.9052 57.2577 43.6159 58.5202 44.8796C59.7828 46.1432 60.492 47.8565 60.492 49.6427V52.3923C60.4919 54.1085 59.9558 55.7819 58.9584 57.1786C54.3279 63.6601 46.7681 66.868 36.5246 66.868C26.2752 66.868 18.7184 63.6571 14.0998 57.1756C13.1058 55.7798 12.5718 54.1088 12.5723 52.3953V49.6398C12.5731 47.8535 13.283 46.1406 14.5461 44.8775C15.8092 43.6144 17.5221 42.9044 19.3084 42.9036H53.7588ZM36.5216 6.97656C38.4883 6.97656 40.4357 7.36392 42.2526 8.11653C44.0696 8.86914 45.7205 9.97225 47.1112 11.3629C48.5018 12.7535 49.6049 14.4044 50.3575 16.2214C51.1101 18.0384 51.4975 19.9858 51.4975 21.9524C51.4975 23.9191 51.1101 25.8665 50.3575 27.6834C49.6049 29.5004 48.5018 31.1513 47.1112 32.5419C45.7205 33.9326 44.0696 35.0357 42.2526 35.7883C40.4357 36.5409 38.4883 36.9283 36.5216 36.9283C32.5498 36.9283 28.7406 35.3504 25.9321 32.5419C23.1236 29.7334 21.5458 25.9242 21.5458 21.9524C21.5458 17.9806 23.1236 14.1714 25.9321 11.3629C28.7406 8.55437 32.5498 6.97656 36.5216 6.97656Z" fill="#E54B75"/>
</svg>
