<svg width="33" height="33" viewBox="0 0 33 33" fill="none" xmlns="http://www.w3.org/2000/svg">
<path d="M3.26961 6.80412C3.27089 5.93842 3.61423 5.10829 4.22484 4.49461C4.83545 3.88093 5.66384 3.53342 6.52953 3.52779L14.5522 3.47529C14.9861 3.47236 15.4163 3.55553 15.8179 3.71999C16.2195 3.88446 16.5845 4.12695 16.8917 4.43342L27.8544 15.3665C28.1597 15.6711 28.4019 16.0328 28.5674 16.431C28.7328 16.8292 28.8181 17.2561 28.8184 17.6874C28.8187 18.1186 28.734 18.5456 28.5691 18.944C28.4043 19.3425 28.1625 19.7046 27.8577 20.0095L19.7382 28.1306C19.1229 28.7457 18.2884 29.0913 17.4184 29.0913C16.5483 29.0913 15.7138 28.7457 15.0985 28.1306L4.21953 17.25C3.91423 16.9448 3.67215 16.5823 3.50718 16.1834C3.3422 15.7845 3.25757 15.3569 3.25812 14.9252L3.26961 6.80412ZM9.84359 11.6719C10.2787 11.6719 10.696 11.499 11.0037 11.1913C11.3114 10.8837 11.4842 10.4664 11.4842 10.0312C11.4842 9.59611 11.3114 9.17881 11.0037 8.87114C10.696 8.56346 10.2787 8.39061 9.84359 8.39061C9.40847 8.39061 8.99117 8.56346 8.68349 8.87114C8.37582 9.17881 8.20296 9.59611 8.20296 10.0312C8.20296 10.4664 8.37582 10.8837 8.68349 11.1913C8.99117 11.499 9.40847 11.6719 9.84359 11.6719Z" fill="#E54B75"/>
</svg>
